<svg id="Layer_1" data-name="Layer 1" xmlns="http://www.w3.org/2000/svg" viewBox="0 0 997.05 165.51"><defs><style>.cls-1{fill:#989ba8;}.cls-2{fill:#fff;}.cls-3{fill:#7e1417;}</style></defs><title>antwerp_logo_long</title><rect class="cls-1" x="88.38" y="52.35" width="209.19" height="112.92"/><path class="cls-1" d="M317.87,57.65h-6V55.5h14.51v2.15h-6V75.1h-2.57V57.65h0Z" transform="translate(0 -3.04)"/><path class="cls-1" d="M328.3,54.37h2.55v8.78h0a4.74,4.74,0,0,1,1.92-1.8,5.25,5.25,0,0,1,2.61-.73c1.92,0,4.91,1.17,4.91,6V75h-2.55V67c0-2.26-.84-4.18-3.26-4.18A3.68,3.68,0,0,0,331,65.41a3.11,3.11,0,0,0-.17,1.23v8.49h-2.55V54.37h0Z" transform="translate(0 -3.04)"/><path class="cls-1" d="M345.93,68.52a4.51,4.51,0,0,0,4.83,4.89,9.26,9.26,0,0,0,3.83-.73L355,74.6a11.5,11.5,0,0,1-4.68.86,6.54,6.54,0,0,1-6.92-7.09c0-4.24,2.49-7.67,6.6-7.67,4.6,0,5.75,4,5.75,6.63a9.41,9.41,0,0,1,0,1.19h-9.86Zm7.5-1.92a3.64,3.64,0,0,0-3.2-4l-0.47,0a4.24,4.24,0,0,0-3.83,4.16h7.48Z" transform="translate(0 -3.04)"/><path class="cls-1" d="M317.32,99.95l-2.07,6.19h-2.61l6.65-19.6h3l6.73,19.6h-2.7L324.28,100h-7v0ZM323.74,98l-1.92-5.64c-0.44-1.28-.73-2.44-1-3.59h0c-0.29,1.17-.61,2.36-1,3.55l-1.92,5.75h5.91Z" transform="translate(0 -3.04)"/><path class="cls-1" d="M331.78,95.84c0-1.46,0-2.65-.12-3.83h2.26l0.15,2.32h0a5.18,5.18,0,0,1,4.66-2.65c1.92,0,5,1.17,5,6v8.47h-2.55V98c0-2.26-.84-4.16-3.26-4.16a3.83,3.83,0,0,0-3.6,3.83v8.46h-2.55V95.84h0Z" transform="translate(0 -3.04)"/><path class="cls-1" d="M350.87,88v4h3.66V94h-3.66v7.67c0,1.74.5,2.74,1.92,2.74a5.75,5.75,0,0,0,1.48-.17l0.12,1.92a6.25,6.25,0,0,1-2.26.35,3.55,3.55,0,0,1-2.76-1.07,5.22,5.22,0,0,1-1-3.66V94.06h-2.19V92.14h2.19V88.67Z" transform="translate(0 -3.04)"/><path class="cls-1" d="M358.7,92l1.92,7.15c0.4,1.57.79,3,1.05,4.49h0c0.33-1.42.79-2.93,1.25-4.45l2.3-7.19h2.15l2.19,7c0.52,1.69.92,3.16,1.25,4.6h0a42.19,42.19,0,0,1,1.07-4.56L373.79,92h2.82L372,106.14h-2.32l-2.15-6.71a46.78,46.78,0,0,1-1.25-4.62h0A41.38,41.38,0,0,1,365,99.47l-2.34,6.67h-2.32l-4.26-14.07h2.63v0Z" transform="translate(0 -3.04)"/><path class="cls-1" d="M380.21,99.54a4.51,4.51,0,0,0,4.83,4.89,9.26,9.26,0,0,0,3.83-.73l0.44,1.92a11.5,11.5,0,0,1-4.68.86,6.54,6.54,0,0,1-6.92-7.09c0-4.24,2.49-7.67,6.6-7.67,4.6,0,5.75,4,5.75,6.63a9.41,9.41,0,0,1,0,1.19h-9.86Zm7.5-1.92a3.64,3.64,0,0,0-3.09-4.12l-0.46,0a4.24,4.24,0,0,0-3.83,4.16h7.38Z" transform="translate(0 -3.04)"/><path class="cls-1" d="M393.34,96.44c0-1.65,0-3.09-.12-4.39h2.24v2.76h0.12a4.22,4.22,0,0,1,3.83-3.09,2.78,2.78,0,0,1,.73,0v2.42a3.83,3.83,0,0,0-.88,0,3.59,3.59,0,0,0-3.43,3.28,7.19,7.19,0,0,0-.12,1.19v7.54h-2.53v-9.7h0.15Z" transform="translate(0 -3.04)"/><path class="cls-1" d="M403,96.55c0-1.8,0-3.26-.12-4.6h2.3l0.12,2.42h0a5.54,5.54,0,0,1,5-2.74c3.39,0,6,2.88,6,7.15,0,5.06-3.09,7.55-6.4,7.55a4.93,4.93,0,0,1-4.28-2.11h0v7.67H403V96.55H403Zm2.53,3.83a5.75,5.75,0,0,0,.12,1.05,4,4,0,0,0,3.83,3c2.7,0,4.28-2.21,4.28-5.45,0-2.82-1.48-5.23-4.18-5.23a4.43,4.43,0,0,0-4,4.22v2.42Z" transform="translate(0 -3.04)"/><path class="cls-1" d="M316.69,117.53v19.6h-2.53v-19.6h2.53Z" transform="translate(0 -3.04)"/><path class="cls-1" d="M321.31,126.87c0-1.46,0-2.65-.12-3.83h2.26l0.15,2.28h0a5.18,5.18,0,0,1,4.66-2.65c1.92,0,5,1.17,5,6V137h-2.55v-8c0-2.26-.84-4.16-3.26-4.16a3.83,3.83,0,0,0-3.6,3.83v8.46h-2.55V126.87h0Z" transform="translate(0 -3.04)"/><path class="cls-1" d="M340.4,119v4H344V125h-3.66v7.67c0,1.74.5,2.74,1.92,2.74a5.75,5.75,0,0,0,1.48-.17l0.12,1.92a6.25,6.25,0,0,1-2.26.35,3.55,3.55,0,0,1-2.76-1.07,5.22,5.22,0,0,1-1-3.66v-7.67h-2.19v-1.92h2.19v-3.47Z" transform="translate(0 -3.04)"/><path class="cls-1" d="M348.21,130.55a4.51,4.51,0,0,0,4.83,4.89,9.26,9.26,0,0,0,3.83-.73l0.44,1.92a11.5,11.5,0,0,1-4.68.86,6.54,6.54,0,0,1-6.92-7.09c0-4.24,2.49-7.67,6.6-7.67,4.6,0,5.75,4,5.75,6.63a9.41,9.41,0,0,1,0,1.19h-9.86Zm7.5-1.92a3.64,3.64,0,0,0-3.09-4.12l-0.46,0a4.24,4.24,0,0,0-3.83,4.16h7.38Z" transform="translate(0 -3.04)"/><path class="cls-1" d="M361.26,127.44c0-1.65,0-3.09-.12-4.39h2.24v2.76h0.12a4.22,4.22,0,0,1,3.83-3.09,2.78,2.78,0,0,1,.73,0v2.59a3.83,3.83,0,0,0-.88,0,3.59,3.59,0,0,0-3.43,3.28,7.19,7.19,0,0,0-.12,1.19v7.5h-2.38v-9.84Z" transform="translate(0 -3.04)"/><path class="cls-1" d="M371,126.87c0-1.46,0-2.65-.12-3.83h2.26l0.13,2.28h0a5.18,5.18,0,0,1,4.66-2.65c1.92,0,5,1.17,5,6V137h-2.44v-8c0-2.26-.84-4.16-3.26-4.16a3.83,3.83,0,0,0-3.6,3.83v8.46H371V126.87H371Z" transform="translate(0 -3.04)"/><path class="cls-1" d="M394.9,137.12l-0.21-1.76h0a5.25,5.25,0,0,1-4.31,2.09,4,4,0,0,1-4.28-3.71q0-.17,0-0.34c0-3.39,3-5.25,8.46-5.23v-0.29a2.9,2.9,0,0,0-3.2-3.26,7,7,0,0,0-3.66,1.05L387.09,124a8.74,8.74,0,0,1,4.62-1.25c4.29,0,5.35,2.93,5.35,5.75v5.25a19.85,19.85,0,0,0,.23,3.37h-2.4Zm-0.38-7.19c-2.8,0-6,.44-6,3.16a2.26,2.26,0,0,0,2.08,2.43H391a3.51,3.51,0,0,0,3.41-2.36,2.68,2.68,0,0,0,.15-0.81V130Z" transform="translate(0 -3.04)"/><path class="cls-1" d="M404.08,119v4h3.66V125h-3.66v7.67c0,1.74.5,2.74,1.92,2.74a5.75,5.75,0,0,0,1.48-.17l0.12,1.92a6.25,6.25,0,0,1-2.26.35,3.55,3.55,0,0,1-2.76-1.07,5.22,5.22,0,0,1-1-3.66v-7.67h-2.19v-1.92h2.15v-3.47Z" transform="translate(0 -3.04)"/><path class="cls-1" d="M413.46,119.1a1.59,1.59,0,0,1-3.16,0,1.55,1.55,0,0,1,1.51-1.59h0.08a1.51,1.51,0,0,1,1.57,1.45S413.46,119.05,413.46,119.1Zm-2.86,18V123h2.55v14.07H410.6Z" transform="translate(0 -3.04)"/><path class="cls-1" d="M430.16,130a6.88,6.88,0,0,1-7,7.48,6.69,6.69,0,0,1-6.77-6.61q0-.32,0-0.64a6.86,6.86,0,0,1,7-7.48A6.67,6.67,0,0,1,430.16,130Zm-11.16.15c0,3.09,1.78,5.41,4.28,5.41s4.28-2.3,4.28-5.46c0-2.38-1.19-5.41-4.22-5.41s-4.35,2.78-4.35,5.46h0Z" transform="translate(0 -3.04)"/><path class="cls-1" d="M433.38,126.87c0-1.46,0-2.65-.12-3.83h2.26l0.15,2.28h0a5.18,5.18,0,0,1,4.66-2.65c1.92,0,5,1.17,5,6V137h-2.55v-8c0-2.26-.84-4.16-3.26-4.16a3.83,3.83,0,0,0-3.6,3.83v8.46h-2.55V126.87h0Z" transform="translate(0 -3.04)"/><path class="cls-1" d="M457.31,137.12l-0.17-1.76h0a5.25,5.25,0,0,1-4.31,2.09,4,4,0,0,1-4.28-3.71q0-.17,0-0.34c0-3.39,3-5.25,8.46-5.23v-0.29a2.9,2.9,0,0,0-3.2-3.26,7,7,0,0,0-3.66,1.05L449.54,124a8.74,8.74,0,0,1,4.62-1.25c4.29,0,5.35,2.93,5.35,5.75v5.25a19.85,19.85,0,0,0,.23,3.37h-2.44Zm-0.38-7.19c-2.8,0-6,.44-6,3.16a2.26,2.26,0,0,0,2.06,2.45h0.28a3.51,3.51,0,0,0,3.41-2.36,2.68,2.68,0,0,0,.15-0.81V130Z" transform="translate(0 -3.04)"/><path class="cls-1" d="M463.52,116.47h2.55v20.65h-2.55V116.47Z" transform="translate(0 -3.04)"/><path class="cls-1" d="M313.81,165.06a9,9,0,0,0,4.54,1.28c2.59,0,4.1-1.36,4.1-3.34s-1.05-2.88-3.7-3.83c-3.2-1.13-5.18-2.8-5.18-5.56,0-3,2.53-5.33,6.35-5.33a8.9,8.9,0,0,1,4.33,1l-0.69,2.07a7.82,7.82,0,0,0-3.72-.92,3.16,3.16,0,0,0-3.7,2.93c0,1.92,1.19,2.74,3.83,3.83,3.32,1.28,5,2.88,5,5.75s-2.24,5.64-6.86,5.64a10.12,10.12,0,0,1-5-1.25Z" transform="translate(0 -3.04)"/><path class="cls-1" d="M338.6,167.61a9.43,9.43,0,0,1-4,.81,6.69,6.69,0,0,1-7-7.19,7.15,7.15,0,0,1,7.55-7.48,8.57,8.57,0,0,1,3.55.73l-0.58,1.92a5.94,5.94,0,0,0-3-.67,5.31,5.31,0,0,0,0,10.58,7.29,7.29,0,0,0,3.14-.69Z" transform="translate(0 -3.04)"/><path class="cls-1" d="M341.59,147.5h2.55v8.78h0a4.74,4.74,0,0,1,1.92-1.8,5.25,5.25,0,0,1,2.61-.73c1.92,0,4.91,1.17,4.91,6v8.38H351v-8.09c0-2.26-.84-4.18-3.26-4.18a3.68,3.68,0,0,0-3.43,2.57,3.11,3.11,0,0,0-.17,1.23v8.49h-2.55V147.5h0Z" transform="translate(0 -3.04)"/><path class="cls-1" d="M370.47,161a6.88,6.88,0,0,1-7,7.48,6.69,6.69,0,0,1-6.77-6.61q0-.32,0-0.64a6.86,6.86,0,0,1,7-7.48A6.67,6.67,0,0,1,370.47,161Zm-11.16.15c0,3.09,1.78,5.41,4.28,5.41s4.28-2.3,4.28-5.46c0-2.38-1.19-5.41-4.22-5.41s-4.29,2.78-4.29,5.46h0Z" transform="translate(0 -3.04)"/><path class="cls-1" d="M386.42,161a6.88,6.88,0,0,1-7,7.48,6.69,6.69,0,0,1-6.66-6.73q0-.25,0-0.5a6.86,6.86,0,0,1,7-7.48,6.67,6.67,0,0,1,6.7,6.65Q386.45,160.69,386.42,161Zm-11.16.15c0,3.09,1.78,5.41,4.28,5.41s4.28-2.3,4.28-5.46c0-2.38-1.19-5.41-4.22-5.41s-4.33,2.78-4.33,5.46h0Z" transform="translate(0 -3.04)"/><path class="cls-1" d="M389.66,147.5h2.55v20.65h-2.55V147.5Z" transform="translate(0 -3.04)"/><path class="cls-2" d="M162,121H139l-1.59,2.59c-1.92,3.09-10,15.53-10,19s6.46,4.37,9,5l-0.4,1.5H105.31l0.4-1.5c13.25-1.92,18-10.66,25.1-21.09l24.7-36.43A27.28,27.28,0,0,0,159.78,82a18.2,18.2,0,0,0,7.29-2.68L168.26,80v7.36l0.31,9,1.92,34.65c0.59,11.35.1,15.53,13,16.53l-0.4,1.5H149.66l0.4-1.5c11.16-1.69,12.16-4.18,12.16-14.84Zm-1.38-32.25L142.18,116.3h19.42Z" transform="translate(0 -3.04)"/><path class="cls-2" d="M213.28,97.78c3-11.95,2.09-12-9.59-14.94l0.4-1.5H238l-0.4,1.5c-11.85,1.09-13.75,7-15.72,14.94l-8.76,34.84c-3,11.95-2.09,12,9.59,14.94l-0.4,1.5H188.39l0.4-1.5c11.85-1.09,13.75-7,15.72-14.94Z" transform="translate(0 -3.04)"/><path class="cls-2" d="M275.54,98.87l-1.69-.59c0-3.83,2.9-15.84-10.26-15.84-6.77,0-11.35,5.75-11.35,12.35,0,12.85,22.7,20.71,22.7,35.05,0,12.54-10.66,20.52-22.51,20.52-6.08,0-14.44-1.92-19.42-5.75l4.89-17.37,1.5,0.31C237.48,136.7,241,148,253,148a13.82,13.82,0,0,0,13.54-13.54c0-14.53-22.7-19-22.7-35.24,0-11.5,9.26-19.17,20.32-19.17a28.3,28.3,0,0,1,15.72,4.68Z" transform="translate(0 -3.04)"/><path class="cls-3" d="M333,3.06c-0.79,0-78.86,4.29-118.88,20.31h0C185.5,34.87,170.79,45,162,51.13l-5.91,3.95c-6.33,3.83-13.92,7.54-14,7.67L0.79,114.08a1.18,1.18,0,0,0,.77,2.22L333.4,5.36a1.17,1.17,0,0,0-.44-2.3h0Z" transform="translate(0 -3.04)"/><path class="cls-3" d="M542.09,111.77V138.9h-3.51V111.77h3.51Z" transform="translate(0 -3.04)"/><path class="cls-3" d="M548.49,124.69c0-1.92,0-3.66-.15-5.27h3.14l0.19,3.22h0a7.17,7.17,0,0,1,6.44-3.66c2.7,0,6.88,1.61,6.88,8.28V138.9h-3.47V127.66c0-3.14-1.17-5.75-4.51-5.75a5.2,5.2,0,0,0-5,5.27V138.9h-3.55V124.69Z" transform="translate(0 -3.04)"/><path class="cls-3" d="M570.35,135.28a9.28,9.28,0,0,0,4.68,1.4c2.57,0,3.83-1.28,3.83-2.9s-1-2.61-3.62-3.59c-3.51-1.25-5.16-3.18-5.16-5.52,0-3.14,2.53-5.75,6.73-5.75a9.74,9.74,0,0,1,4.79,1.21l-0.88,2.57a7.67,7.67,0,0,0-4-1.07,2.84,2.84,0,0,0-3.26,2.67c0,1.61,1.17,2.34,3.7,3.3,3.37,1.28,5.12,3,5.12,5.89,0,3.41-2.67,5.75-7.29,5.75a11.12,11.12,0,0,1-5.48-1.32Z" transform="translate(0 -3.04)"/><path class="cls-3" d="M586.76,125.78c0-2.49,0-4.51-.15-6.37h3.18l0.15,3.34h0a7.67,7.67,0,0,1,6.92-3.83c4.72,0,8.24,4,8.24,9.89,0,7-4.28,10.47-8.86,10.47a6.83,6.83,0,0,1-6-3.07h0V146.8h-3.49v-21Zm3.51,5.2a8,8,0,0,0,.15,1.46,5.46,5.46,0,0,0,5.31,4.14c3.83,0,5.92-3.07,5.92-7.54,0-3.83-2.05-7.25-5.75-7.25a6.18,6.18,0,0,0-5.6,5.85V131h0Z" transform="translate(0 -3.04)"/><path class="cls-3" d="M613.63,113.93a2.2,2.2,0,1,1-4.39,0,2.17,2.17,0,0,1,2.13-2.21h0.08a2.11,2.11,0,0,1,2.19,2Q613.63,113.85,613.63,113.93Zm-3.95,24.93V119.42h3.47V138.9h-3.47v0Z" transform="translate(0 -3.04)"/><path class="cls-3" d="M619.09,125.5c0-2.3,0-4.28-.15-6.08H622l0.12,3.83h0.15A5.75,5.75,0,0,1,627.7,119a3.83,3.83,0,0,1,1,.12v3.34a5.39,5.39,0,0,0-1.21-.12,5,5,0,0,0-4.76,4.53,9.93,9.93,0,0,0-.15,1.65V138.9h-3.49V125.5Z" transform="translate(0 -3.04)"/><path class="cls-3" d="M636.37,113.93a2.2,2.2,0,1,1-4.39,0,2.17,2.17,0,0,1,2.13-2.21h0.14a2.11,2.11,0,0,1,2.13,2.09S636.37,113.9,636.37,113.93Zm-3.95,24.93V119.42H636V138.9h-3.55v0Z" transform="translate(0 -3.04)"/><path class="cls-3" d="M641.91,124.69c0-1.92,0-3.66-.15-5.27h3.14l0.19,3.22h0a7.17,7.17,0,0,1,6.4-3.66c2.7,0,6.88,1.61,6.88,8.28V138.9h-3.49V127.66c0-3.14-1.17-5.75-4.51-5.75a5.2,5.2,0,0,0-5,5.27V138.9h-3.49V124.69Z" transform="translate(0 -3.04)"/><path class="cls-3" d="M681,119.42c0,1.4-.15,3-0.15,5.35v11.31c0,4.47-.88,7.21-2.78,8.9a10.33,10.33,0,0,1-7.08,2.34,12.58,12.58,0,0,1-6.48-1.61l0.88-2.7a11,11,0,0,0,5.75,1.53c3.62,0,6.27-1.92,6.27-6.81v-2.22h0a7,7,0,0,1-6.19,3.26c-4.83,0-8.28-4.1-8.28-9.59,0-6.6,4.31-10.35,8.78-10.35a6.48,6.48,0,0,1,6.08,3.37h0l0.15-2.93H681Zm-3.66,7.67a5,5,0,0,0-.19-1.61,5.1,5.1,0,0,0-4.95-3.83c-3.37,0-5.75,2.86-5.75,7.36,0,3.83,1.92,7,5.75,7a5.18,5.18,0,0,0,4.91-3.62,6.16,6.16,0,0,0,.29-1.92v-3.36Z" transform="translate(0 -3.04)"/><path class="cls-3" d="M694.87,134.62a12.41,12.41,0,0,0,6.27,1.76c3.59,0,5.75-1.92,5.75-4.62s-1.53-3.93-5.2-5.39c-4.43-1.57-7.17-3.83-7.17-7.67,0-4.22,3.51-7.36,8.78-7.36a12.33,12.33,0,0,1,6,1.32l-1,2.86a10.81,10.81,0,0,0-5.08-1.3c-3.83,0-5.18,2.22-5.18,4,0,2.53,1.65,3.83,5.39,5.23,4.58,1.76,6.92,4,6.92,8s-3.11,7.88-9.51,7.88a14,14,0,0,1-6.92-1.73Z" transform="translate(0 -3.04)"/><path class="cls-3" d="M731.37,133.59c0,1.92,0,3.83.15,5.31h-3.14l-0.19-3.18h0a7.34,7.34,0,0,1-6.52,3.62c-3.07,0-6.73-1.69-6.73-8.53V119.42h3.55v10.79c0,3.7,1.13,6.19,4.35,6.19a5,5,0,0,0,5-5v-12h3.55v14.17h0Z" transform="translate(0 -3.04)"/><path class="cls-3" d="M751.2,138.17a13,13,0,0,1-5.75,1.17,9.26,9.26,0,0,1-9.59-10A9.89,9.89,0,0,1,746.33,119a11.85,11.85,0,0,1,4.91,1l-0.81,2.74a8.23,8.23,0,0,0-4.1-.92,6.75,6.75,0,0,0-6.88,7.36,6.67,6.67,0,0,0,6.77,7.29,10,10,0,0,0,4.35-1Z" transform="translate(0 -3.04)"/><path class="cls-3" d="M768.94,138.17a13,13,0,0,1-5.6,1.13,9.26,9.26,0,0,1-9.7-10A9.89,9.89,0,0,1,764.1,119a11.85,11.85,0,0,1,4.91,1l-0.81,2.74a8.23,8.23,0,0,0-4.1-.92,6.75,6.75,0,0,0-6.88,7.36,6.67,6.67,0,0,0,6.77,7.29,10,10,0,0,0,4.35-1Z" transform="translate(0 -3.04)"/><path class="cls-3" d="M774.8,129.75a6.23,6.23,0,0,0,6.69,6.77,12.85,12.85,0,0,0,5.39-1l0.59,2.53a15.78,15.78,0,0,1-6.48,1.21c-6,0-9.59-3.95-9.59-9.82s3.45-10.51,9.13-10.51c6.37,0,8.05,5.6,8.05,9.18a13.23,13.23,0,0,1-.12,1.65H774.78Zm10.39-2.53c0-2.26-.92-5.75-4.91-5.75-3.59,0-5.16,3.3-5.43,5.75H785.2Z" transform="translate(0 -3.04)"/><path class="cls-3" d="M792.52,135.28a9.28,9.28,0,0,0,4.66,1.4c2.57,0,3.83-1.28,3.83-2.9s-1-2.61-3.62-3.59c-3.51-1.25-5.16-3.18-5.16-5.52,0-3.14,2.53-5.75,6.73-5.75a9.72,9.72,0,0,1,4.79,1.21l-0.88,2.57a7.67,7.67,0,0,0-4-1.13,2.84,2.84,0,0,0-3.26,2.67c0,1.61,1.17,2.34,3.7,3.3,3.37,1.28,5.12,3,5.12,5.89,0,3.41-2.67,5.75-7.29,5.75a11.12,11.12,0,0,1-5.48-1.32Z" transform="translate(0 -3.04)"/><path class="cls-3" d="M808.45,135.28a9.28,9.28,0,0,0,4.66,1.4c2.57,0,3.83-1.28,3.83-2.9s-1-2.61-3.62-3.59c-3.51-1.25-5.16-3.18-5.16-5.52,0-3.14,2.53-5.75,6.73-5.75a9.72,9.72,0,0,1,4.79,1.21l-0.88,2.57a7.67,7.67,0,0,0-4-1.13,2.84,2.84,0,0,0-3.26,2.67c0,1.61,1.17,2.34,3.7,3.3,3.37,1.28,5.12,3,5.12,5.89,0,3.41-2.67,5.75-7.29,5.75a11.12,11.12,0,0,1-5.48-1.32Z" transform="translate(0 -3.04)"/><path class="cls-3" d="M825.25,138.9V122.08h-2.74v-2.67h2.74V118.5a9.18,9.18,0,0,1,2.26-6.81,6.77,6.77,0,0,1,4.76-1.82,8.21,8.21,0,0,1,3,.56l-0.48,2.74a5.25,5.25,0,0,0-2.26-.44c-3,0-3.83,2.67-3.83,5.64v1.05h4.72v2.67H828.7v16.78h-3.51Z" transform="translate(0 -3.04)"/><path class="cls-3" d="M852.94,133.59c0,1.92,0,3.83.15,5.31h-3.14l-0.19-3.18h0a7.32,7.32,0,0,1-6.52,3.62c-3.07,0-6.73-1.69-6.73-8.53V119.42h3.55v10.79c0,3.7,1.13,6.19,4.35,6.19a5.12,5.12,0,0,0,4.58-3.22,5.2,5.2,0,0,0,.33-1.8v-12h3.55v14.17h0.08Z" transform="translate(0 -3.04)"/><path class="cls-3" d="M858.82,110.31h3.59V138.9h-3.55V110.31h0Z" transform="translate(0 -3.04)"/><path class="cls-3" d="M877,111.77h14.61v2.93h-11.1v9h10.26v2.9H880.49v12.27H877V111.77Z" transform="translate(0 -3.04)"/><path class="cls-3" d="M911.36,133.59c0,1.92,0,3.83.15,5.31h-3.09l-0.19-3.18h0a7.32,7.32,0,0,1-6.58,3.62c-3.07,0-6.73-1.69-6.73-8.53V119.42h3.55v10.79c0,3.7,1.13,6.19,4.35,6.19a5.12,5.12,0,0,0,4.68-3.22,5.2,5.2,0,0,0,.33-1.8v-12h3.55v14.17h0Z" transform="translate(0 -3.04)"/><path class="cls-3" d="M921.5,113.82v5.6h5.06v2.67H921.5v10.51c0,2.42.69,3.83,2.67,3.83a7.9,7.9,0,0,0,2.05-.25l0.15,2.67a8.67,8.67,0,0,1-3.14.48,4.91,4.91,0,0,1-3.83-1.5,7.23,7.23,0,0,1-1.36-5.08V122.08h-3v-2.67h3v-4.68Z" transform="translate(0 -3.04)"/><path class="cls-3" d="M946.77,133.59c0,1.92,0,3.83.15,5.31h-3.14l-0.19-3.18h0a7.32,7.32,0,0,1-6.4,3.62c-3.07,0-6.73-1.69-6.73-8.53V119.42H934v10.79c0,3.7,1.13,6.19,4.35,6.19a5.12,5.12,0,0,0,4.58-3.22,5.2,5.2,0,0,0,.33-1.8v-12h3.51v14.17Z" transform="translate(0 -3.04)"/><path class="cls-3" d="M952.74,125.5c0-2.3,0-4.28-.15-6.08h3.11l0.12,3.83H956a5.75,5.75,0,0,1,5.39-4.26,3.83,3.83,0,0,1,1,.12v3.34a5.35,5.35,0,0,0-1.21-.12,5,5,0,0,0-4.77,4.53,10,10,0,0,0-.15,1.65V138.9H952.7V125.48Z" transform="translate(0 -3.04)"/><path class="cls-3" d="M967.46,129.75a6.23,6.23,0,0,0,6.69,6.77,12.85,12.85,0,0,0,5.39-1l0.59,2.53a15.78,15.78,0,0,1-6.52,1.28c-6,0-9.59-3.95-9.59-9.82S967.48,119,973.16,119c6.37,0,8.05,5.6,8.05,9.18a13.23,13.23,0,0,1-.12,1.65H967.41Zm10.39-2.53c0-2.26-.92-5.75-4.91-5.75-3.59,0-5.16,3.3-5.43,5.75h10.33Z" transform="translate(0 -3.04)"/><path class="cls-3" d="M985.12,135.28a9.28,9.28,0,0,0,4.66,1.4c2.57,0,3.83-1.28,3.83-2.9s-1-2.61-3.62-3.59c-3.51-1.25-5.16-3.18-5.16-5.52,0-3.14,2.53-5.75,6.73-5.75a9.72,9.72,0,0,1,4.79,1.21l-0.88,2.57a7.67,7.67,0,0,0-4-1.13,2.84,2.84,0,0,0-3.26,2.67c0,1.61,1.17,2.34,3.7,3.3,3.37,1.28,5.12,3,5.12,5.89,0,3.41-2.67,5.75-7.29,5.75a11.12,11.12,0,0,1-5.48-1.32Z" transform="translate(0 -3.04)"/></svg>